<?xml version="1.0" standalone="no"?><!DOCTYPE svg PUBLIC "-//W3C//DTD SVG 1.1//EN" "http://www.w3.org/Graphics/SVG/1.1/DTD/svg11.dtd"><svg class="icon" width="200px" height="200.00px" viewBox="0 0 1024 1024" version="1.1" xmlns="http://www.w3.org/2000/svg"><path fill="#333333" d="M512 877.714286c201.984 0 365.714286-163.730286 365.714286-365.714286S713.984 146.285714 512 146.285714 146.285714 310.016 146.285714 512s163.730286 365.714286 365.714286 365.714286z m0 73.142857C269.622857 950.857143 73.142857 754.377143 73.142857 512S269.622857 73.142857 512 73.142857s438.857143 196.48 438.857143 438.857143-196.48 438.857143-438.857143 438.857143z"  /><path fill="#333333" d="M691.766857 308.242286l-127.670857 216.082285h82.304v32.859429h-99.163429V603.428571h99.163429v32.859429h-99.163429v83.456H483.84v-83.456h-99.163429V603.428571h99.163429v-46.244571h-99.163429v-32.859429h82.285715l-127.378286-216.082285h70.966857l104.411429 186.715428h1.737143l104.411428-186.715428z"  /></svg>