<?xml version="1.0" standalone="no"?><!DOCTYPE svg PUBLIC "-//W3C//DTD SVG 1.1//EN" "http://www.w3.org/Graphics/SVG/1.1/DTD/svg11.dtd"><svg class="icon" width="200px" height="200.00px" viewBox="0 0 1024 1024" version="1.1" xmlns="http://www.w3.org/2000/svg"><path fill="#333333" d="M591.990882 0v73.142544A438.855262 438.855262 0 0 1 951.303628 432.638146H591.808026V0m0 0a73.142544 73.142544 0 0 0-73.142544 73.142544v359.495602a73.142544 73.142544 0 0 0 73.142544 73.142544H951.303628A73.142544 73.142544 0 0 0 1023.349033 420.569626 511.997806 511.997806 0 0 0 603.876545 1.097138a73.142544 73.142544 0 0 0-12.068519-1.097138z"  /><path fill="#333333" d="M384.448914 189.987757V530.283442a109.713816 109.713816 0 0 0 109.713816 109.713815h340.295684A385.095492 385.095492 0 0 1 457.591458 950.853068a399.358288 399.358288 0 0 1-63.999726-5.302835 383.998354 383.998354 0 0 1-9.142818-755.562476m1.097138-73.142543a86.673914 86.673914 0 0 0-13.53137 1.279994 457.140898 457.140898 0 0 0 9.691387 900.019A468.477992 468.477992 0 0 0 457.591458 1023.995611a460.0666 460.0666 0 0 0 449.095218-371.564121 73.142544 73.142544 0 0 0-73.142544-85.576777H494.16273a36.571272 36.571272 0 0 1-36.571272-36.571271V189.987757a73.142544 73.142544 0 0 0-72.045406-73.142543z"  /></svg>